# xmcd CD database file
#
# Track frame offsets:
#	150
#	20993
#	38655
#
# Disc length: 837 seconds
#
# Revision: 0
# Processed by: cddbd v1.5.1PL0 Copyright (c) Steve Scherf et al.
# Submitted via: CDex 1.51
#
DISCID=1f034303
DTITLE=THE BACK HORN - 夢の花
DYEAR=2004
DGENRE=ロック (日本)
TTITLE0=夢の花
TTITLE1=針の雨
TTITLE2=レクイエム
EXTD=YEAR: 2004
EXTT0=
EXTT1=
EXTT2=
PLAYORDER=
